<svg id="visual" viewBox="0 0 540 960" width="540" height="960" xmlns="http://www.w3.org/2000/svg" xmlns:xlink="http://www.w3.org/1999/xlink" version="1.1"><path d="M0 679L4.7 665.5C9.3 652 18.7 625 28.2 617.3C37.7 609.7 47.3 621.3 56.8 630.2C66.3 639 75.7 645 85.2 639.5C94.7 634 104.3 617 113.8 609.7C123.3 602.3 132.7 604.7 142.2 614.5C151.7 624.3 161.3 641.7 170.8 662.5C180.3 683.3 189.7 707.7 199 704.3C208.3 701 217.7 670 227.2 667.3C236.7 664.7 246.3 690.3 255.8 691.5C265.3 692.7 274.7 669.3 284.2 651.2C293.7 633 303.3 620 312.8 637.5C322.3 655 331.7 703 341 704.5C350.3 706 359.7 661 369.2 653C378.7 645 388.3 674 397.8 694.2C407.3 714.3 416.7 725.7 426.2 717.8C435.7 710 445.3 683 454.8 673.5C464.3 664 473.7 672 483.2 669.8C492.7 667.7 502.3 655.3 511.8 649.2C521.3 643 530.7 643 535.3 643L540 643L540 961L535.3 961C530.7 961 521.3 961 511.8 961C502.3 961 492.7 961 483.2 961C473.7 961 464.3 961 454.8 961C445.3 961 435.7 961 426.2 961C416.7 961 407.3 961 397.8 961C388.3 961 378.7 961 369.2 961C359.7 961 350.3 961 341 961C331.7 961 322.3 961 312.8 961C303.3 961 293.7 961 284.2 961C274.7 961 265.3 961 255.8 961C246.3 961 236.7 961 227.2 961C217.7 961 208.3 961 199 961C189.7 961 180.3 961 170.8 961C161.3 961 151.7 961 142.2 961C132.7 961 123.3 961 113.8 961C104.3 961 94.7 961 85.2 961C75.7 961 66.3 961 56.8 961C47.3 961 37.7 961 28.2 961C18.7 961 9.3 961 4.7 961L0 961Z" fill="#6ede8a" stroke-linecap="round" stroke-linejoin="miter"></path></svg>