<?xml version="1.0" standalone="no"?>
<!DOCTYPE svg PUBLIC "-//W3C//DTD SVG 20010904//EN"
 "http://www.w3.org/TR/2001/REC-SVG-20010904/DTD/svg10.dtd">
<svg version="1.0" xmlns="http://www.w3.org/2000/svg"
 width="1024.000000pt" height="687.000000pt" viewBox="0 0 1024.000000 687.000000"
 preserveAspectRatio="xMidYMid meet">
<metadata>
Created by potrace 1.16, written by Peter Selinger 2001-2019
</metadata>
<g transform="translate(0.000000,687.000000) scale(0.100000,-0.100000)"
fill="#000000" stroke="none">
<path d="M3707 5788 c-7 -4 623 -7 1398 -6 776 2 1304 4 1175 5 -590 7 -2563
7 -2573 1z"/>
<path d="M3703 5750 c-10 -3 -20 -12 -22 -20 -7 -26 -6 -2641 1 -2719 4 -44
12 -77 20 -82 20 -13 2808 -11 2808 2 0 5 4 8 9 4 6 -3 10 521 9 1403 0 1038
-3 1409 -12 1410 -43 4 -2799 6 -2813 2z m2329 -208 l277 -2 1 -1205 c0 -1147
0 -1205 -17 -1205 -265 -3 -2388 2 -2391 4 -3 4 -5 945 -3 2073 l1 333 528 2
c617 3 1215 3 1604 0z"/>
<path d="M3919 5335 c-3 -60 -6 -570 -5 -1132 1 -824 4 -1025 14 -1035 10 -10
240 -14 1187 -16 l1175 -3 -2 743 -3 743 -5 -735 c-3 -404 -8 -734 -12 -732
-5 1 -532 2 -1173 2 l-1165 0 -2 1138 c-2 625 -6 1088 -9 1027z"/>
<path d="M4850 5043 c-70 -22 -105 -72 -98 -138 4 -32 13 -51 34 -69 16 -14
35 -26 42 -26 17 0 15 -20 -2 -20 -8 0 -28 -16 -46 -36 l-32 -37 4 -143 c3
-135 4 -144 27 -168 23 -25 17 -38 -6 -15 -12 12 -33 4 -33 -11 0 -5 17 -8 38
-6 20 2 46 -3 57 -10 17 -12 10 -14 -59 -14 -76 0 -78 1 -63 18 14 16 17 43
17 173 l0 154 -217 -5 c-120 -3 -224 -9 -230 -13 -9 -6 -13 -46 -13 -142 0
-126 1 -135 24 -161 l23 -28 162 2 c109 2 160 -1 156 -8 -3 -5 -17 -10 -31
-10 -25 0 -35 -5 -119 -54 -110 -65 -216 -203 -232 -304 -3 -18 -10 -35 -14
-38 -5 -3 -9 -21 -9 -41 0 -53 19 -62 130 -63 l95 0 1 -34 c1 -46 39 -101 94
-134 54 -32 94 -40 168 -31 33 4 99 58 131 107 35 55 38 70 16 86 -11 8 45 10
219 8 148 -2 250 1 276 8 52 14 102 58 140 125 38 67 94 107 174 125 61 14
148 -7 194 -45 20 -17 45 -35 56 -38 22 -9 46 9 46 33 0 29 -92 104 -152 124
-83 29 -98 45 -105 113 -6 66 -25 117 -51 133 -13 9 -8 10 22 5 64 -10 77 10
75 119 -2 107 -11 126 -58 126 -93 0 -211 -67 -211 -119 0 -28 45 -81 68 -81
7 0 12 -4 12 -9 0 -5 17 -12 38 -16 l37 -8 -33 -7 c-41 -10 -59 -29 -95 -105
-16 -33 -35 -73 -43 -88 -8 -16 -14 -35 -14 -43 0 -8 -4 -14 -8 -14 -4 0 -14
-17 -21 -37 -32 -92 -80 -173 -103 -173 -5 0 -8 6 -7 13 3 28 -15 56 -49 74
-20 11 -36 26 -35 34 8 45 29 126 37 138 5 7 9 48 10 92 l1 78 -40 42 c-52 53
-73 62 -170 68 l-80 6 -6 43 c-3 23 -3 42 0 42 3 0 17 -12 32 -26 32 -30 81
-43 164 -44 66 0 108 16 113 43 7 36 -16 47 -98 47 -89 0 -90 1 -207 118 -34
34 -69 62 -78 62 -8 0 -15 5 -15 10 0 6 6 10 13 10 20 0 62 43 77 78 7 19 24
40 37 49 12 8 23 24 23 34 0 15 -7 19 -39 19 -24 0 -44 6 -52 17 -14 16 -70
44 -86 42 -4 0 -15 -3 -23 -6z"/>
<path d="M4323 4791 c-37 -24 -59 -59 -45 -73 7 -7 296 -13 430 -9 31 1 29 41
-4 72 -25 23 -32 24 -187 27 -148 3 -165 1 -194 -17z"/>
<path d="M5656 4058 c-59 -16 -130 -93 -150 -162 -15 -51 -15 -60 -1 -104 47
-143 203 -209 321 -137 99 62 139 177 95 277 -28 61 -49 83 -107 112 -55 27
-94 31 -158 14z"/>
<path d="M3640 4341 c0 -929 3 -1402 10 -1406 7 -4 10 459 10 1399 0 918 -3
1406 -10 1406 -6 0 -10 -486 -10 -1399z"/>
<path d="M6555 4335 c0 -775 1 -1094 2 -708 2 386 2 1020 0 1410 -1 389 -2 74
-2 -702z"/>
<path d="M3730 2889 c-19 -4 600 -6 1375 -5 776 0 1187 2 915 3 -1233 7 -2258
7 -2290 2z"/>
<path d="M7393 2433 c-31 -6 -35 -27 -31 -186 2 -75 1 -137 -1 -137 -2 0 -19
11 -37 25 -18 14 -39 25 -48 25 -8 0 -18 5 -21 10 -3 6 -44 10 -90 10 -72 0
-91 -4 -132 -26 -67 -37 -92 -62 -115 -114 -11 -25 -24 -53 -29 -63 -12 -22
-10 -254 1 -277 5 -8 15 -31 24 -51 19 -44 74 -101 119 -125 36 -18 166 -31
194 -19 10 5 23 7 30 6 6 -1 14 3 18 9 3 5 13 10 21 10 8 0 27 11 42 25 34 32
37 31 39 -6 3 -38 0 -36 44 -44 56 -10 70 11 68 99 -2 101 -3 293 -2 573 l1
242 -31 10 c-16 6 -33 10 -36 10 -3 -1 -16 -4 -28 -6z m-173 -363 c60 -11 116
-49 131 -88 6 -15 11 -77 11 -138 1 -161 -28 -210 -135 -234 -92 -21 -168 13
-208 93 -17 34 -21 61 -21 144 0 89 3 108 22 139 33 52 58 72 104 83 23 5 42
9 42 10 1 1 25 -4 54 -9z"/>
<path d="M1940 2411 c-15 -29 -12 -67 6 -85 13 -14 40 -16 162 -14 l147 3 5
-400 5 -400 56 -3 c47 -2 56 0 57 15 4 45 1 756 -3 763 -3 4 2 13 10 20 10 8
54 11 147 9 169 -4 178 -1 178 56 0 36 -4 44 -22 49 -13 3 -184 6 -380 6 -343
0 -358 -1 -368 -19z"/>
<path d="M3405 2418 c-3 -7 -4 -213 -3 -458 l3 -445 49 -3 c27 -2 52 0 57 5 4
4 9 162 10 351 2 188 6 342 9 342 3 -1 61 -114 130 -253 l125 -252 56 -3 56
-3 104 208 c57 114 107 210 111 211 5 2 8 11 8 20 0 10 7 26 15 36 8 11 15 28
15 38 0 10 3 18 8 18 4 0 6 -147 4 -327 -2 -181 0 -342 3 -359 5 -31 7 -31 58
-30 l52 1 3 449 c2 353 0 451 -10 458 -21 13 -124 9 -136 -4 -17 -22 -62 -110
-62 -124 0 -7 -4 -14 -8 -16 -4 -1 -25 -39 -46 -83 -75 -156 -101 -210 -106
-215 -3 -3 -19 -34 -36 -69 l-32 -63 -34 68 c-19 38 -39 78 -45 89 -6 11 -51
101 -100 199 -48 99 -96 190 -106 203 -16 20 -27 23 -83 23 -42 0 -66 -4 -69
-12z"/>
<path d="M3367 2413 c-12 -11 -8 -881 3 -888 7 -4 10 147 10 444 0 248 -1 451
-3 451 -2 0 -7 -3 -10 -7z"/>
<path d="M2675 2166 c-17 -12 -18 -30 -16 -252 1 -131 6 -255 11 -275 13 -47
68 -103 123 -124 42 -16 139 -17 187 -3 48 14 66 23 89 44 34 32 38 30 33 -11
l-4 -35 61 0 61 0 0 321 c0 295 -1 323 -17 335 -24 18 -64 17 -91 -2 -22 -15
-22 -19 -22 -228 0 -240 -5 -260 -68 -300 -101 -63 -219 -33 -237 60 -3 19 -7
131 -8 247 -2 157 -5 212 -14 212 -7 0 -18 6 -24 13 -17 16 -41 15 -64 -2z"/>
<path d="M4620 2171 c-8 -5 -28 -15 -43 -22 -44 -20 -104 -83 -126 -131 -46
-100 -46 -246 0 -346 22 -48 91 -122 114 -122 8 0 15 -4 15 -10 0 -5 8 -10 18
-10 10 0 24 -6 30 -12 9 -9 50 -13 130 -13 124 0 201 16 229 47 14 16 14 21
-1 53 -14 28 -21 34 -39 30 -12 -3 -51 -12 -87 -20 -83 -19 -119 -19 -188 1
-63 17 -117 65 -124 112 -3 15 -7 34 -9 42 -3 13 28 15 234 18 l238 2 11 26
c9 19 9 36 0 70 -7 24 -12 55 -12 69 0 72 -88 189 -151 202 -16 3 -29 9 -29
14 0 11 -190 11 -210 0z m205 -111 c32 -17 72 -86 77 -133 l3 -28 -180 0 -180
0 3 38 c5 61 48 113 107 132 45 14 136 10 170 -9z"/>
<path d="M5175 2168 c-11 -6 -21 -12 -23 -14 -6 -4 -2 -614 4 -629 8 -19 94
-21 112 -3 8 8 12 67 12 201 0 201 2 210 54 265 45 49 107 77 186 87 14 1 29
3 33 4 4 0 7 22 5 49 l-3 47 -44 3 c-25 2 -54 -1 -65 -6 -12 -5 -41 -18 -64
-28 -24 -10 -59 -33 -78 -52 l-34 -34 0 29 c0 47 -10 70 -36 82 -30 13 -34 13
-59 -1z"/>
<path d="M5795 2170 c-3 -5 -15 -10 -26 -10 -10 0 -19 -4 -19 -9 0 -5 -12 -12
-26 -15 -30 -8 -114 -89 -114 -111 0 -8 -4 -15 -8 -15 -24 0 -56 -223 -34
-244 4 -4 7 -11 8 -14 2 -33 21 -83 42 -114 27 -41 110 -108 134 -108 8 0 19
-5 25 -11 6 -6 52 -14 101 -17 69 -3 103 -1 148 13 75 23 86 32 82 68 -5 47
-26 54 -107 33 -50 -13 -84 -16 -122 -11 -88 12 -169 69 -169 120 0 13 -5 25
-11 27 -15 5 -15 152 0 184 6 13 17 36 23 50 7 15 28 38 47 53 32 24 41 26
146 26 78 0 120 -4 139 -14 24 -13 28 -13 41 5 8 10 15 33 15 50 0 27 -5 34
-32 44 -18 6 -41 16 -50 21 -24 12 -225 12 -233 -1z"/>
<path d="M6368 2174 c-5 -5 -43 -16 -94 -27 -6 -2 -22 -10 -34 -18 -22 -14
-22 -17 -9 -53 15 -42 13 -41 134 -17 64 13 196 14 228 2 13 -5 31 -25 40 -44
30 -63 27 -65 -75 -70 -119 -6 -150 -12 -224 -47 -90 -42 -134 -107 -134 -201
0 -76 25 -118 100 -170 30 -21 46 -24 115 -23 44 0 89 3 100 5 37 8 115 48
115 58 0 6 5 11 10 11 6 0 10 -16 10 -35 l0 -36 58 3 57 3 3 235 c1 129 -2
246 -7 260 -5 14 -12 37 -15 52 -8 35 -70 98 -96 98 -11 0 -20 4 -20 9 0 10
-252 15 -262 5z m240 -329 l42 -6 0 -56 c0 -82 -26 -123 -104 -164 -32 -17
-52 -20 -101 -17 -92 8 -125 37 -125 113 0 51 59 108 125 120 72 14 114 17
163 10z"/>
<path d="M7786 2151 c-61 -35 -123 -99 -132 -137 -4 -16 -10 -33 -14 -39 -12
-17 -22 -77 -23 -135 0 -99 30 -184 88 -249 21 -23 44 -41 51 -41 8 0 14 -4
14 -10 0 -5 8 -10 18 -10 10 0 23 -5 29 -11 6 -6 49 -13 96 -16 123 -8 185 13
257 88 69 71 90 129 90 252 0 47 -4 96 -9 109 -11 28 -18 50 -19 61 -1 12 -53
79 -77 99 -11 9 -42 29 -68 43 -43 22 -60 25 -150 24 -92 0 -107 -3 -151 -28z
m278 -106 c13 -9 36 -41 51 -71 25 -51 27 -64 23 -148 -6 -147 -54 -208 -176
-222 -62 -8 -137 22 -175 68 -74 92 -59 303 28 368 50 38 194 41 249 5z"/>
</g>
</svg>
